# MagicaVoxel @ ephtracy

# material
mtllib mahoutukaiHoukiNomi.mtl
usemtl palette

# normals
vn -1 0 0
vn 1 0 0
vn 0 0 1
vn 0 0 -1
vn 0 -1 0
vn 0 1 0

# texcoords
vt 0.373047 0.5
vt 0.537109 0.5

# verts
v -2.5 26 0.5
v -2.5 26 -0.5
v -2.5 27 0.5
v -2.5 27 -0.5
v -2.5 30 0.5
v -2.5 30 -0.5
v -2.5 32 0.5
v -2.5 32 -0.5
v -1.5 24 0.5
v -1.5 24 -0.5
v -1.5 26 1.5
v -1.5 26 0.5
v -1.5 26 -0.5
v -1.5 26 -1.5
v -1.5 27 0.5
v -1.5 27 -0.5
v -1.5 29 1.5
v -1.5 29 0.5
v -1.5 30 0.5
v -1.5 30 -0.5
v -1.5 30 -1.5
v -1.5 31 1.5
v -1.5 31 0.5
v -1.5 32 1.5
v -1.5 32 0.5
v -1.5 32 -0.5
v -1.5 32 -1.5
v -0.5 0 0.5
v -0.5 0 -0.5
v -0.5 24 1.5
v -0.5 24 0.5
v -0.5 24 -0.5
v -0.5 24 -1.5
v -0.5 25 -0.5
v -0.5 25 -1.5
v -0.5 26 2.5
v -0.5 26 1.5
v -0.5 26 0.5
v -0.5 26 -0.5
v -0.5 26 -1.5
v -0.5 26 -2.5
v -0.5 29 1.5
v -0.5 29 -1.5
v -0.5 29 -2.5
v -0.5 30 -1.5
v -0.5 31 2.5
v -0.5 31 1.5
v -0.5 32 2.5
v -0.5 32 1.5
v -0.5 32 -1.5
v -0.5 32 -2.5
v 0.5 0 0.5
v 0.5 0 -0.5
v 0.5 24 1.5
v 0.5 24 0.5
v 0.5 24 -0.5
v 0.5 24 -1.5
v 0.5 25 -0.5
v 0.5 25 -1.5
v 0.5 26 2.5
v 0.5 26 1.5
v 0.5 26 0.5
v 0.5 26 -0.5
v 0.5 26 -1.5
v 0.5 26 -2.5
v 0.5 28 -1.5
v 0.5 29 -1.5
v 0.5 29 -2.5
v 0.5 30 1.5
v 0.5 31 2.5
v 0.5 31 1.5
v 0.5 32 2.5
v 0.5 32 1.5
v 0.5 32 -1.5
v 0.5 32 -2.5
v 1.5 24 0.5
v 1.5 24 -0.5
v 1.5 26 1.5
v 1.5 26 0.5
v 1.5 26 -0.5
v 1.5 26 -1.5
v 1.5 27 0.5
v 1.5 27 -0.5
v 1.5 28 -0.5
v 1.5 28 -1.5
v 1.5 30 1.5
v 1.5 30 0.5
v 1.5 31 0.5
v 1.5 31 -0.5
v 1.5 32 1.5
v 1.5 32 0.5
v 1.5 32 -0.5
v 1.5 32 -1.5
v 2.5 26 0.5
v 2.5 26 -0.5
v 2.5 27 0.5
v 2.5 27 -0.5
v 2.5 31 0.5
v 2.5 31 -0.5
v 2.5 32 0.5
v 2.5 32 -0.5
v -0.5 26 2.5
v -0.5 31 2.5
v -0.5 32 2.5
v 0.5 26 2.5
v 0.5 31 2.5
v 0.5 32 2.5
v -1.5 26 1.5
v -1.5 29 1.5
v -1.5 31 1.5
v -1.5 32 1.5
v -0.5 24 1.5
v -0.5 26 1.5
v -0.5 29 1.5
v -0.5 31 1.5
v -0.5 32 1.5
v 0.5 24 1.5
v 0.5 26 1.5
v 0.5 30 1.5
v 0.5 31 1.5
v 0.5 32 1.5
v 1.5 26 1.5
v 1.5 30 1.5
v 1.5 32 1.5
v -2.5 26 0.5
v -2.5 27 0.5
v -2.5 30 0.5
v -2.5 32 0.5
v -1.5 24 0.5
v -1.5 26 0.5
v -1.5 27 0.5
v -1.5 29 0.5
v -1.5 30 0.5
v -1.5 31 0.5
v -1.5 32 0.5
v -0.5 0 0.5
v -0.5 24 0.5
v -0.5 26 0.5
v 0.5 0 0.5
v 0.5 24 0.5
v 0.5 26 0.5
v 1.5 24 0.5
v 1.5 26 0.5
v 1.5 27 0.5
v 1.5 30 0.5
v 1.5 31 0.5
v 1.5 32 0.5
v 2.5 26 0.5
v 2.5 27 0.5
v 2.5 31 0.5
v 2.5 32 0.5
v -2.5 26 -0.5
v -2.5 27 -0.5
v -2.5 30 -0.5
v -2.5 32 -0.5
v -1.5 24 -0.5
v -1.5 26 -0.5
v -1.5 27 -0.5
v -1.5 30 -0.5
v -1.5 32 -0.5
v -0.5 0 -0.5
v -0.5 24 -0.5
v -0.5 25 -0.5
v -0.5 26 -0.5
v 0.5 0 -0.5
v 0.5 24 -0.5
v 0.5 25 -0.5
v 0.5 26 -0.5
v 1.5 24 -0.5
v 1.5 26 -0.5
v 1.5 27 -0.5
v 1.5 28 -0.5
v 1.5 31 -0.5
v 1.5 32 -0.5
v 2.5 26 -0.5
v 2.5 27 -0.5
v 2.5 31 -0.5
v 2.5 32 -0.5
v -1.5 26 -1.5
v -1.5 30 -1.5
v -1.5 32 -1.5
v -0.5 24 -1.5
v -0.5 25 -1.5
v -0.5 26 -1.5
v -0.5 29 -1.5
v -0.5 30 -1.5
v -0.5 32 -1.5
v 0.5 24 -1.5
v 0.5 25 -1.5
v 0.5 26 -1.5
v 0.5 28 -1.5
v 0.5 29 -1.5
v 0.5 32 -1.5
v 1.5 26 -1.5
v 1.5 28 -1.5
v 1.5 32 -1.5
v -0.5 26 -2.5
v -0.5 29 -2.5
v -0.5 32 -2.5
v 0.5 26 -2.5
v 0.5 29 -2.5
v 0.5 32 -2.5
v -0.5 0 0.5
v 0.5 0 0.5
v -0.5 0 -0.5
v 0.5 0 -0.5
v -0.5 24 1.5
v 0.5 24 1.5
v -1.5 24 0.5
v -0.5 24 0.5
v 0.5 24 0.5
v 1.5 24 0.5
v -1.5 24 -0.5
v -0.5 24 -0.5
v 0.5 24 -0.5
v 1.5 24 -0.5
v -0.5 24 -1.5
v 0.5 24 -1.5
v -0.5 26 2.5
v 0.5 26 2.5
v -1.5 26 1.5
v -0.5 26 1.5
v 0.5 26 1.5
v 1.5 26 1.5
v -2.5 26 0.5
v -1.5 26 0.5
v -0.5 26 0.5
v 0.5 26 0.5
v 1.5 26 0.5
v 2.5 26 0.5
v -2.5 26 -0.5
v -1.5 26 -0.5
v -0.5 26 -0.5
v 0.5 26 -0.5
v 1.5 26 -0.5
v 2.5 26 -0.5
v -1.5 26 -1.5
v -0.5 26 -1.5
v 0.5 26 -1.5
v 1.5 26 -1.5
v -0.5 26 -2.5
v 0.5 26 -2.5
v -0.5 32 2.5
v 0.5 32 2.5
v -1.5 32 1.5
v -0.5 32 1.5
v 0.5 32 1.5
v 1.5 32 1.5
v -2.5 32 0.5
v -1.5 32 0.5
v 0.5 32 0.5
v 1.5 32 0.5
v 2.5 32 0.5
v -2.5 32 -0.5
v -1.5 32 -0.5
v 1.5 32 -0.5
v 2.5 32 -0.5
v -1.5 32 -1.5
v -0.5 32 -1.5
v 0.5 32 -1.5
v 1.5 32 -1.5
v -0.5 32 -2.5
v 0.5 32 -2.5

# faces
f 3/1/1 2/1/1 1/1/1
f 4/1/1 2/1/1 3/1/1
f 5/2/1 4/2/1 3/2/1
f 6/2/1 4/2/1 5/2/1
f 7/1/1 6/1/1 5/1/1
f 8/1/1 6/1/1 7/1/1
f 12/1/1 10/1/1 9/1/1
f 13/1/1 10/1/1 12/1/1
f 15/2/1 12/2/1 11/2/1
f 16/1/1 14/1/1 13/1/1
f 17/2/1 15/2/1 11/2/1
f 18/2/1 15/2/1 17/2/1
f 19/1/1 18/1/1 17/1/1
f 20/1/1 14/1/1 16/1/1
f 21/1/1 14/1/1 20/1/1
f 22/1/1 19/1/1 17/1/1
f 23/1/1 19/1/1 22/1/1
f 24/2/1 23/2/1 22/2/1
f 25/2/1 23/2/1 24/2/1
f 26/2/1 21/2/1 20/2/1
f 27/2/1 21/2/1 26/2/1
f 31/2/1 29/2/1 28/2/1
f 32/2/1 29/2/1 31/2/1
f 34/2/1 33/2/1 32/2/1
f 35/2/1 33/2/1 34/2/1
f 37/1/1 31/1/1 30/1/1
f 38/1/1 31/1/1 37/1/1
f 39/1/1 35/1/1 34/1/1
f 40/1/1 35/1/1 39/1/1
f 42/1/1 37/1/1 36/1/1
f 43/2/1 41/2/1 40/2/1
f 44/2/1 41/2/1 43/2/1
f 45/1/1 44/1/1 43/1/1
f 46/1/1 42/1/1 36/1/1
f 47/1/1 42/1/1 46/1/1
f 48/2/1 47/2/1 46/2/1
f 49/2/1 47/2/1 48/2/1
f 50/1/1 44/1/1 45/1/1
f 51/1/1 44/1/1 50/1/1
f 52/2/2 53/2/2 55/2/2
f 55/2/2 53/2/2 56/2/2
f 56/2/2 57/2/2 58/2/2
f 58/2/2 57/2/2 59/2/2
f 54/1/2 55/1/2 61/1/2
f 61/1/2 55/1/2 62/1/2
f 58/1/2 59/1/2 63/1/2
f 63/1/2 59/1/2 64/1/2
f 64/2/2 65/2/2 66/2/2
f 66/2/2 65/2/2 67/2/2
f 67/2/2 65/2/2 68/2/2
f 60/1/2 61/1/2 69/1/2
f 60/1/2 69/1/2 70/1/2
f 70/1/2 69/1/2 71/1/2
f 70/2/2 71/2/2 72/2/2
f 72/2/2 71/2/2 73/2/2
f 67/1/2 68/1/2 74/1/2
f 74/1/2 68/1/2 75/1/2
f 76/2/2 77/2/2 79/2/2
f 79/2/2 77/2/2 80/2/2
f 78/2/2 79/2/2 82/2/2
f 80/1/2 81/1/2 83/1/2
f 83/1/2 81/1/2 84/1/2
f 84/1/2 81/1/2 85/1/2
f 78/2/2 82/2/2 86/2/2
f 86/2/2 82/2/2 87/2/2
f 86/1/2 87/1/2 88/1/2
f 84/2/2 85/2/2 89/2/2
f 86/1/2 88/1/2 90/1/2
f 90/1/2 88/1/2 91/1/2
f 89/2/2 85/2/2 92/2/2
f 92/2/2 85/2/2 93/2/2
f 94/2/2 95/2/2 96/2/2
f 96/2/2 95/2/2 97/2/2
f 96/1/2 97/1/2 98/1/2
f 98/1/2 97/1/2 99/1/2
f 98/2/2 99/2/2 100/2/2
f 100/2/2 99/2/2 101/2/2
f 105/1/3 103/1/3 102/1/3
f 106/2/3 104/2/3 103/2/3
f 106/1/3 103/1/3 105/1/3
f 107/2/3 104/2/3 106/2/3
f 113/2/3 109/2/3 108/2/3
f 114/1/3 110/1/3 109/1/3
f 114/2/3 109/2/3 113/2/3
f 115/2/3 111/2/3 110/2/3
f 115/1/3 110/1/3 114/1/3
f 116/2/3 111/2/3 115/2/3
f 117/1/3 113/1/3 112/1/3
f 118/1/3 113/1/3 117/1/3
f 122/2/3 119/2/3 118/2/3
f 123/1/3 121/1/3 120/1/3
f 123/2/3 119/2/3 122/2/3
f 123/1/3 120/1/3 119/1/3
f 124/1/3 121/1/3 123/1/3
f 130/1/3 126/1/3 125/1/3
f 131/2/3 127/2/3 126/2/3
f 131/1/3 126/1/3 130/1/3
f 132/2/3 127/2/3 131/2/3
f 133/1/3 128/1/3 127/1/3
f 133/2/3 127/2/3 132/2/3
f 134/1/3 128/1/3 133/1/3
f 135/1/3 128/1/3 134/1/3
f 137/1/3 130/1/3 129/1/3
f 138/1/3 130/1/3 137/1/3
f 139/2/3 137/2/3 136/2/3
f 140/2/3 137/2/3 139/2/3
f 142/2/3 141/2/3 140/2/3
f 143/2/3 141/2/3 142/2/3
f 148/2/3 144/2/3 143/2/3
f 149/1/3 146/1/3 145/1/3
f 149/2/3 144/2/3 148/2/3
f 149/1/3 145/1/3 144/1/3
f 150/2/3 147/2/3 146/2/3
f 150/1/3 146/1/3 149/1/3
f 151/2/3 147/2/3 150/2/3
f 152/1/4 153/1/4 157/1/4
f 153/2/4 154/2/4 158/2/4
f 157/1/4 153/1/4 158/1/4
f 154/1/4 155/1/4 159/1/4
f 158/2/4 154/2/4 159/2/4
f 159/1/4 155/1/4 160/1/4
f 156/1/4 157/1/4 162/1/4
f 162/1/4 157/1/4 163/1/4
f 163/1/4 157/1/4 164/1/4
f 161/2/4 162/2/4 165/2/4
f 165/2/4 162/2/4 166/2/4
f 167/2/4 168/2/4 169/2/4
f 166/2/4 167/2/4 169/2/4
f 169/2/4 168/2/4 170/2/4
f 170/2/4 171/2/4 175/2/4
f 172/1/4 173/1/4 176/1/4
f 175/2/4 171/2/4 176/2/4
f 171/1/4 172/1/4 176/1/4
f 173/2/4 174/2/4 177/2/4
f 176/1/4 173/1/4 177/1/4
f 177/2/4 174/2/4 178/2/4
f 179/1/4 180/1/4 184/1/4
f 184/1/4 180/1/4 185/1/4
f 180/2/4 181/2/4 186/2/4
f 185/1/4 180/1/4 186/1/4
f 186/2/4 181/2/4 187/2/4
f 182/2/4 183/2/4 188/2/4
f 183/1/4 184/1/4 189/1/4
f 188/2/4 183/2/4 189/2/4
f 189/1/4 184/1/4 190/1/4
f 190/1/4 191/1/4 194/1/4
f 192/2/4 193/2/4 195/2/4
f 194/1/4 191/1/4 195/1/4
f 191/2/4 192/2/4 195/2/4
f 195/2/4 193/2/4 196/2/4
f 197/2/4 198/2/4 200/2/4
f 198/1/4 199/1/4 201/1/4
f 200/2/4 198/2/4 201/2/4
f 201/1/4 199/1/4 202/1/4
f 205/2/5 204/2/5 203/2/5
f 206/2/5 204/2/5 205/2/5
f 210/1/5 208/1/5 207/1/5
f 211/1/5 208/1/5 210/1/5
f 213/1/5 210/1/5 209/1/5
f 214/1/5 210/1/5 213/1/5
f 215/2/5 212/2/5 211/2/5
f 216/2/5 212/2/5 215/2/5
f 217/2/5 215/2/5 214/2/5
f 218/2/5 215/2/5 217/2/5
f 222/1/5 220/1/5 219/1/5
f 223/1/5 220/1/5 222/1/5
f 226/2/5 222/2/5 221/2/5
f 227/2/5 222/2/5 226/2/5
f 228/2/5 224/2/5 223/2/5
f 229/2/5 224/2/5 228/2/5
f 231/1/5 226/1/5 225/1/5
f 232/1/5 226/1/5 231/1/5
f 235/2/5 230/2/5 229/2/5
f 236/2/5 230/2/5 235/2/5
f 237/1/5 233/1/5 232/1/5
f 238/1/5 233/1/5 237/1/5
f 239/1/5 235/1/5 234/1/5
f 240/1/5 235/1/5 239/1/5
f 241/2/5 239/2/5 238/2/5
f 242/2/5 239/2/5 241/2/5
f 243/2/6 244/2/6 246/2/6
f 246/2/6 244/2/6 247/2/6
f 245/2/6 246/2/6 250/2/6
f 246/2/6 247/2/6 250/2/6
f 247/1/6 248/1/6 251/1/6
f 250/2/6 247/2/6 251/2/6
f 251/1/6 248/1/6 252/1/6
f 249/1/6 250/1/6 254/1/6
f 252/2/6 253/2/6 255/2/6
f 254/1/6 250/1/6 255/1/6
f 250/2/6 251/2/6 255/2/6
f 251/2/6 252/2/6 255/2/6
f 255/2/6 253/2/6 256/2/6
f 256/2/6 253/2/6 257/2/6
f 255/2/6 256/2/6 258/2/6
f 258/2/6 256/2/6 259/2/6
f 259/2/6 256/2/6 260/2/6
f 260/2/6 256/2/6 261/2/6
f 259/1/6 260/1/6 262/1/6
f 262/1/6 260/1/6 263/1/6
